<?xml version="1.0"?>
<svg xmlns="http://www.w3.org/2000/svg" xmlns:xlink="http://www.w3.org/1999/xlink" xmlns:svgjs="http://svgjs.com/svgjs" version="1.1" width="512" height="512" x="0" y="0" viewBox="0 0 512 512" style="enable-background:new 0 0 512 512" xml:space="preserve" class=""><g><linearGradient xmlns="http://www.w3.org/2000/svg" id="linear-gradient" gradientUnits="userSpaceOnUse" x1="256" x2="256" y1="28" y2="482.533"><stop stop-opacity="1" stop-color="#603ec8" offset="0"/><stop stop-opacity="1" stop-color="#5f7da8" offset="0.4247104247104247"/><stop stop-opacity="1" stop-color="#00acea" offset="1"/></linearGradient><linearGradient xmlns="http://www.w3.org/2000/svg" xmlns:xlink="http://www.w3.org/1999/xlink" id="linear-gradient-2" x1="255.978" x2="255.978" xlink:href="#linear-gradient" y1="28" y2="482.533"/><linearGradient xmlns="http://www.w3.org/2000/svg" xmlns:xlink="http://www.w3.org/1999/xlink" id="linear-gradient-4" x1="295.423" x2="295.423" xlink:href="#linear-gradient" y1="28" y2="482.533"/><linearGradient xmlns="http://www.w3.org/2000/svg" xmlns:xlink="http://www.w3.org/1999/xlink" id="linear-gradient-5" x1="216.577" x2="216.577" xlink:href="#linear-gradient" y1="28" y2="482.533"/><path xmlns="http://www.w3.org/2000/svg" d="m404.47 283.627a6.1 6.1 0 0 0 5.53-5.972v-43.31a6.1 6.1 0 0 0 -5.537-5.972l-27.957-2.7a121.1 121.1 0 0 0 -14.144-33.433l17.727-21.4a6 6 0 0 0 -.361-8.05l-30.247-30.554a6 6 0 0 0 -8.095-.4l-21.444 17.784a125.047 125.047 0 0 0 -33.453-14.1l-2.7-27.961a6.12 6.12 0 0 0 -5.969-5.559h-43.373a6.119 6.119 0 0 0 -5.972 5.556l-2.7 27.895a121.093 121.093 0 0 0 -33.49 14.1l-21.4-17.731a6 6 0 0 0 -8.068.38l-30.617 30.562a6 6 0 0 0 -.381 8.079l17.765 21.427a125.54 125.54 0 0 0 -14.119 33.4l-27.981 2.7a6.056 6.056 0 0 0 -5.484 5.977v43.31a6.054 6.054 0 0 0 5.484 5.972l27.93 2.7a121.1 121.1 0 0 0 14.131 33.433l-17.733 21.4a6 6 0 0 0 .384 8.076l30.618 30.555a6 6 0 0 0 8.069.371l21.443-17.779a125.054 125.054 0 0 0 33.452 14.1l2.7 27.961a6.119 6.119 0 0 0 5.969 5.556h43.373a6.118 6.118 0 0 0 5.972-5.556l2.7-27.9a121.088 121.088 0 0 0 33.49-14.1l21.405 17.731a6 6 0 0 0 8.068-.38l30.616-30.558a6 6 0 0 0 .38-8.079l-17.765-21.427a125.717 125.717 0 0 0 14.179-33.409zm-38.355-4.162a113.763 113.763 0 0 1 -15.848 37.48 6 6 0 0 0 .409 7.1l17.043 20.555-22.879 22.837-20.564-17.051a6 6 0 0 0 -7.139-.386 109.24 109.24 0 0 1 -37.466 15.754 6.157 6.157 0 0 0 -4.712 5.423l-2.585 26.823h-32.48l-2.586-26.823a6.078 6.078 0 0 0 -4.722-5.358 113.2 113.2 0 0 1 -37.522-15.828 6 6 0 0 0 -7.073.412l-20.563 17.042-22.879-22.837 17.043-20.557a6 6 0 0 0 .377-7.153 109.246 109.246 0 0 1 -15.81-37.408 6.072 6.072 0 0 0 -5.347-4.695l-26.812-2.587v-32.416l26.812-2.586a6.038 6.038 0 0 0 5.31-4.671 113.753 113.753 0 0 1 15.863-37.48 6 6 0 0 0 -.4-7.1l-17.04-20.555 22.881-22.833 20.564 17.051a6 6 0 0 0 7.14.386 109.236 109.236 0 0 1 37.47-15.758 6.158 6.158 0 0 0 4.711-5.423l2.583-26.823h32.48l2.585 26.823a6.081 6.081 0 0 0 4.722 5.358 113.2 113.2 0 0 1 37.519 15.828 6 6 0 0 0 7.072-.412l20.538-17.02 22.553 22.789-17.063 20.583a6 6 0 0 0 -.377 7.152 109.251 109.251 0 0 1 15.81 37.409 6.134 6.134 0 0 0 5.4 4.7l26.867 2.582v32.422l-26.5 2.586a6.135 6.135 0 0 0 -5.385 4.665z" fill="url(#linear-gradient)" data-original="url(#linear-gradient)" style=""/><path xmlns="http://www.w3.org/2000/svg" d="m255.978 161.419a94.581 94.581 0 1 0 94.712 94.581 94.754 94.754 0 0 0 -94.712-94.581zm0 177.162a82.581 82.581 0 1 1 82.712-82.581 82.741 82.741 0 0 1 -82.712 82.581z" fill="url(#linear-gradient-2)" data-original="url(#linear-gradient-2)" style="" class=""/><path xmlns="http://www.w3.org/2000/svg" d="m256 227.3a11.32 11.32 0 0 1 11.307 11.307 6 6 0 0 0 12 0 23.347 23.347 0 0 0 -16.307-22.231v-4.376a6 6 0 0 0 -12 0v3.846a23.306 23.306 0 0 0 5 46.069 11.307 11.307 0 1 1 -11.307 11.307 6 6 0 0 0 -12 0 23.346 23.346 0 0 0 17.307 22.52v6.258a6 6 0 0 0 12 0v-6.258a23.306 23.306 0 0 0 -6-45.827 11.308 11.308 0 0 1 0-22.615z" fill="url(#linear-gradient)" data-original="url(#linear-gradient)" style=""/><path xmlns="http://www.w3.org/2000/svg" d="m466.3 235.763a6 6 0 0 0 -9.236 0l-38.2 46.055a6.3 6.3 0 0 0 -.812 6.557 6.168 6.168 0 0 0 5.428 3.625h30.191a208.8 208.8 0 0 1 -71.342 130.851c-36.759 31.519-82.945 49.508-126.715 49.508-28.551 0-58.4-7.737-86.314-22.293a214.454 214.454 0 0 1 -73.489-63.058 6 6 0 1 0 -9.681 7.075 226.467 226.467 0 0 0 77.622 66.583c29.622 15.445 61.387 23.607 91.862 23.607 46.592 0 95.625-18.956 134.526-52.312a222.137 222.137 0 0 0 75.624-139.961h34.112a6.206 6.206 0 0 0 4.619-10.094zm-30.048 44.237 25.426-30.656 25.427 30.656z" fill="url(#linear-gradient-4)" data-original="url(#linear-gradient-4)" style=""/><path xmlns="http://www.w3.org/2000/svg" d="m93.95 223.625a6.168 6.168 0 0 0 -5.43-3.625h-30.191a208.8 208.8 0 0 1 71.342-130.851c36.759-31.519 82.945-49.508 126.715-49.508 28.551 0 58.4 7.737 86.314 22.293a214.454 214.454 0 0 1 73.489 63.058 6 6 0 1 0 9.681-7.075 226.467 226.467 0 0 0 -77.622-66.583c-29.622-15.445-61.387-23.607-91.862-23.607-46.592 0-95.625 18.956-134.526 52.312a222.137 222.137 0 0 0 -75.624 139.961h-34.112a6.206 6.206 0 0 0 -4.619 10.094l38.2 46.1a5.989 5.989 0 0 0 9.236.033l38.2-46.137a6.141 6.141 0 0 0 .809-6.465zm-43.628 39.032-25.422-30.657h50.848z" fill="url(#linear-gradient-5)" data-original="url(#linear-gradient-5)" style=""/></g></svg>
